<?xml version="1.0" encoding="UTF-8"?>
<svg id="Layer_1" xmlns="http://www.w3.org/2000/svg" version="1.1" viewBox="0 0 8063.31 1022.35">
  <!-- Generator: Adobe Illustrator 30.1.0, SVG Export Plug-In . SVG Version: 2.1.1 Build 136)  -->
  <defs>
    <style>
      .st0 {
        fill: #fff;
      }
    </style>
  </defs>
  <g>
    <path class="st0" d="M2250,0h247.55v790.19h448.04v209.78h-695.58V0Z"/>
    <path class="st0" d="M2965.15,799.98c0-158.04,134.11-205.59,282.36-225.17,134.26-16.78,190.05-30.77,190.05-79.72,0-46.15-37.61-76.92-106.14-76.92-115.58,0-124.32,84.07-124.32,84.07h-209.79s10.76-237.91,332.71-237.91,331.31,173.42,331.31,262.93v472.72h-195.8l-23.78-79.72h-2.8c-41.96,60.14-121.37,97.9-229.06,97.9-142.65,0-244.75-76.92-244.75-218.18ZM3443.16,744.04v-85.31c-29.37,15.39-79.57,26.57-125.72,37.76-88.11,19.58-132.71,41.96-132.71,96.5,0,57.34,50.2,79.72,106.14,79.72,85.31,0,152.29-51.75,152.29-128.67Z"/>
    <path class="st0" d="M3696.74,283.91h219.58v97.9h4.2c53.15-76.92,121.68-118.88,220.97-118.88,156.64,0,248.94,111.89,248.94,271.32v465.72h-227.97v-419.57c0-75.52-37.76-127.27-111.89-127.27s-125.87,62.93-125.87,151.04v395.8h-227.97V283.91Z"/>
    <path class="st0" d="M4411.26,641.94c0-223.77,128.67-379.01,313.28-379.01,100.7,0,158.04,41.96,199.99,102.1h4.2V0h227.97v999.98h-218.18v-96.5h-2.8c-43.36,74.12-117.48,118.88-211.18,118.88-183.21,0-313.28-141.25-313.28-380.41ZM4934.32,641.94c0-120.28-48.95-206.99-148.25-206.99-90.91,0-144.05,83.92-144.05,204.19s53.14,202.79,141.26,202.79c95.1,0,151.04-82.51,151.04-199.99Z"/>
    <path class="st0" d="M5176.26,767.82h215.38s.73,106.29,117.73,106.29c68.53,0,101.72-32.17,101.72-71.33,0-64.34-73.8-71.33-168.91-88.11-124.47-20.98-251.84-54.55-251.84-222.37,0-151.04,134.37-229.36,303.59-229.36,304.95,0,310.16,237.6,310.16,237.6h-209.79s3.43-92.15-99.03-92.15c-55.94,0-91.06,26.57-91.06,65.73,0,50.35,68.21,57.34,159.12,74.12,125.87,20.98,263.13,53.15,263.13,236.36,0,156.64-125.55,237.76-312.96,237.76-352.14,0-337.26-254.54-337.26-254.54Z"/>
    <path class="st0" d="M5832.13,640.54c0-213.98,142.05-377.61,360.23-377.61,335.24,0,364.43,292.3,363.03,437.75h-499.49c0,96.82,59.54,156.64,153.24,156.64,102.51,0,120.15-89.51,120.15-89.51h218.58s-21.79,253.14-341.52,253.14c-236.36,0-374.22-163.63-374.22-380.41ZM6332.34,565.02s9.71-139.86-131.76-139.86-143.28,139.86-143.28,139.86h275.04Z"/>
    <path class="st0" d="M6575,640.54c0-213.98,142.05-377.61,360.23-377.61,335.24,0,364.43,292.3,363.03,437.75h-499.49c0,96.82,59.54,156.64,153.24,156.64,102.51,0,120.15-89.51,120.15-89.51h218.58s-21.79,253.14-341.52,253.14c-236.36,0-374.22-163.63-374.22-380.41ZM7075.21,565.02s9.71-139.86-131.76-139.86-143.28,139.86-143.28,139.86h275.04Z"/>
    <path class="st0" d="M7317.87,641.94c0-223.77,128.67-379.01,313.28-379.01,100.7,0,158.04,41.96,199.99,102.1h4.2V0h227.97v999.98h-218.18v-96.5h-2.8c-43.36,74.12-117.48,118.88-211.18,118.88-183.21,0-313.28-141.25-313.28-380.41ZM7840.94,641.94c0-120.28-48.95-206.99-148.25-206.99-90.91,0-144.05,83.92-144.05,204.19s53.14,202.79,141.26,202.79c95.1,0,151.04-82.51,151.04-199.99Z"/>
  </g>
  <path class="st0" d="M624.29,0v15.59c.22.06.44.1.66.15,3.49.9,6.91,1.97,10.38,2.95,4.46,1.25,8.94,2.43,13.35,3.79,2.25.7,4.44,1.53,6.68,2.26,5.54,1.81,11.1,3.6,16.55,5.6,3.32,1.21,6.56,2.6,9.84,3.88,4.29,1.68,8.63,3.28,12.86,5.07,3.6,1.52,7.11,3.22,10.67,4.83,3.83,1.72,7.7,3.37,11.48,5.19,3.64,1.75,7.17,3.67,10.76,5.51,3.6,1.85,7.25,3.61,10.8,5.53,5.37,2.92,10.62,6.02,15.86,9.12,1.68.99,3.41,1.9,5.07,2.92,6.29,3.82,12.47,7.82,18.57,11.91.56.38,1.15.72,1.71,1.1,4.55,3.07,8.98,6.32,13.42,9.54,2.05,1.48,4.17,2.89,6.19,4.4,4.57,3.42,9.01,7.01,13.46,10.57,1.79,1.44,3.65,2.8,5.42,4.26,4.6,3.79,9.05,7.74,13.5,11.69,1.53,1.36,3.13,2.65,4.64,4.02,4.14,3.76,8.14,7.68,12.15,11.58,1.72,1.68,3.52,3.28,5.22,4.98,4.15,4.15,8.15,8.46,12.16,12.75,1.45,1.55,2.97,3.04,4.4,4.61,4.03,4.43,7.9,9,11.76,13.58,1.3,1.54,2.67,3.01,3.95,4.56,4.23,5.13,8.3,10.39,12.33,15.69.82,1.07,1.7,2.11,2.51,3.19,3.1,4.15,6.04,8.43,9.01,12.67,1.63,2.33,3.34,4.58,4.93,6.94,2.99,4.43,5.81,8.98,8.67,13.51,1.43,2.27,2.94,4.47,4.34,6.77,2.67,4.39,5.16,8.9,7.7,13.38,1.43,2.53,2.96,5,4.34,7.56,2.34,4.3,4.49,8.7,6.7,13.08,1.43,2.83,2.96,5.61,4.34,8.48,2.27,4.71,4.34,9.52,6.47,14.3,1.17,2.62,2.43,5.19,3.55,7.84,1.76,4.17,3.34,8.43,4.99,12.66,1.31,3.36,2.72,6.66,3.96,10.05,1.62,4.41,3.04,8.92,4.54,13.39,1.1,3.28,2.3,6.51,3.33,9.83,1.52,4.91,2.85,9.9,4.22,14.87.82,2.96,1.75,5.87,2.51,8.85,1.25,4.84,2.28,9.75,3.38,14.64.21.95.43,1.9.66,2.86h438.27c6.22,14.16,13.31,28.02,21.48,41.43h-448.04v45.36h481.04c6.03,7.07,12.27,14.03,18.96,20.72,6.7,6.7,13.07,13.62,19.12,20.71h-519.12v45.36h551.97c8.19,13.42,15.43,27.25,21.67,41.43h-573.64v45.36h589.94c3.89,13.65,6.98,27.48,9.2,41.43h-599.14v45.36h603.32c.4,13.82.03,27.65-1.18,41.43h-602.14v-41.43c-180.91.66-361.98-72.28-500.01-239.64-121.45-147.26-276.23-229.4-434.91-246.57C131.26,136.96,242.81,49.69,375.71,15.65V0H0v1000h2000V0H624.29ZM1461.66,45.36c-9.48,13.32-17.84,27.19-25.25,41.43h-436.41v-41.43h461.66ZM1404.8,173.57h-404.8v-41.43h416.6c-.11.3-.24.59-.34.89-4.65,13.32-8.46,26.86-11.47,40.54ZM1397.85,218.93c-1.2,13.78-1.58,27.61-1.17,41.43h-396.67v-41.43h397.85ZM1000,305.71h400.93c2.22,13.94,5.27,27.78,9.16,41.43h-410.09v-41.43ZM1595.14,826.42c-3.09,13.99-6.99,27.83-11.79,41.43h-583.35v-41.43h595.14ZM1000,913.21h563.47c-7.43,14.25-15.92,28.09-25.42,41.43h-538.05v-41.43Z"/>
</svg>